<?xml version="1.0" standalone="no"?>
<!DOCTYPE svg PUBLIC "-//W3C//DTD SVG 20010904//EN"
 "http://www.w3.org/TR/2001/REC-SVG-20010904/DTD/svg10.dtd">
<svg version="1.0" xmlns="http://www.w3.org/2000/svg"
 width="500.000000pt" height="500.000000pt" viewBox="0 0 500.000000 500.000000"
 preserveAspectRatio="xMidYMid meet">
<metadata>
Created by potrace 1.14, written by Peter Selinger 2001-2017
</metadata>
<g transform="translate(0.000000,500.000000) scale(0.100000,-0.100000)"
fill="#000000" stroke="none">
<path d="M2385 4856 c-53 -24 -760 -412 -1690 -926 -27 -15 -81 -45 -120 -65
-183 -97 -220 -131 -256 -226 -18 -47 -19 -101 -19 -1139 0 -1037 1 -1092 19
-1139 36 -94 74 -128 261 -228 41 -22 95 -52 120 -65 72 -40 881 -486 1275
-703 451 -248 444 -245 525 -245 81 0 78 -1 505 235 187 103 363 200 390 215
28 15 277 152 555 305 278 153 533 293 567 312 76 41 129 93 157 153 21 45 21
49 24 1147 2 1082 2 1102 -18 1155 -25 68 -81 127 -162 171 -93 51 -550 302
-808 445 -124 68 -259 142 -300 164 -41 23 -226 124 -409 226 -184 102 -358
195 -385 208 -70 33 -162 33 -231 0z m-398 -1461 c62 -19 112 -60 136 -114 28
-61 30 -186 4 -253 -20 -51 -81 -114 -122 -124 -14 -3 -25 -7 -25 -9 0 -2 43
-78 95 -169 52 -91 95 -168 95 -171 0 -3 -42 -5 -93 -5 l-94 0 -89 165 -89
165 -57 0 -58 0 0 -165 0 -165 -80 0 -80 0 0 424 0 424 88 7 c48 3 96 8 107
10 38 7 218 -7 262 -20z m736 15 c84 -12 135 -38 179 -89 55 -64 71 -132 76
-311 7 -300 -48 -417 -215 -456 -121 -28 -265 -11 -342 40 -58 39 -97 114
-112 216 -15 102 -6 338 16 412 46 152 187 218 398 188z m613 -17 c32 -21 70
-85 215 -370 68 -134 127 -243 132 -243 4 0 7 142 7 315 l0 315 75 0 75 0 0
-382 c0 -235 -4 -398 -11 -420 -21 -77 -122 -91 -185 -26 -34 34 -43 50 -220
393 l-109 210 -3 -317 -2 -318 -75 0 -75 0 0 395 c0 290 3 401 12 421 24 52
106 65 164 27z m-2006 -413 l0 -430 -85 0 -85 0 0 430 0 430 85 0 85 0 0 -430z
m-100 -770 l0 -180 235 0 235 0 0 180 0 180 35 0 35 0 0 -405 0 -405 -35 0
-35 0 0 195 0 195 -235 0 -235 0 0 -195 0 -195 -35 0 -35 0 0 405 0 405 35 0
35 0 0 -180z m1082 -117 c3 -261 5 -303 21 -338 28 -62 74 -104 135 -121 107
-32 207 6 258 98 l29 53 3 303 3 302 35 0 35 0 -3 -307 c-3 -300 -4 -309 -27
-361 -14 -30 -42 -69 -67 -91 -111 -97 -327 -86 -419 22 -64 75 -68 98 -73
435 l-4 302 36 0 35 0 3 -297z m1319 287 c102 -20 154 -73 166 -170 11 -90
-35 -167 -110 -185 -36 -9 -34 -21 5 -29 101 -20 163 -130 138 -242 -15 -67
-52 -112 -119 -142 -52 -24 -69 -26 -228 -30 l-173 -5 0 407 0 406 134 0 c73
0 157 -5 187 -10z"/>
<path d="M1708 3284 c-16 -5 -18 -20 -18 -140 l0 -134 96 0 c149 0 194 32 194
140 0 62 -19 102 -57 120 -28 13 -183 23 -215 14z"/>
<path d="M2550 3262 c-66 -36 -75 -72 -75 -287 0 -164 2 -195 18 -223 28 -51
71 -72 147 -72 76 0 119 21 147 72 16 29 18 59 18 228 0 188 -1 196 -24 234
-14 21 -39 44 -57 52 -48 20 -132 18 -174 -4z"/>
<path d="M3378 2324 c-5 -4 -8 -70 -8 -146 l0 -138 120 0 c136 0 171 10 213
59 52 62 29 168 -45 208 -25 13 -63 18 -153 21 -66 2 -123 0 -127 -4z"/>
<path d="M3375 1968 c-3 -7 -4 -83 -3 -168 l3 -155 99 -3 c127 -4 197 11 241
49 85 75 66 207 -38 261 -35 18 -64 23 -169 26 -104 4 -129 2 -133 -10z"/>
</g>
</svg>
